<svg id="Layer_1" data-name="Layer 1" xmlns="http://www.w3.org/2000/svg" viewBox="0 0 58.62 21.23"><defs><style>.cls-1{fill:#fff;}</style></defs><title>decoration</title><path class="cls-1" d="M292.12,366.46A15.1,15.1,0,0,1,297,363a13.29,13.29,0,0,1,6-1,28.55,28.55,0,0,1,11.5,3.39c1.8.88,3.51,1.9,5.21,2.81s3.44,1.79,5.17,2.66a62.49,62.49,0,0,0,10.78,4.35c.93.27,1.88.48,2.83.67a14.69,14.69,0,0,0,2.83.35,6.27,6.27,0,0,0,4.71-1.88,3.59,3.59,0,0,0,.56-4,6.14,6.14,0,0,0-3.65-2.93,14.79,14.79,0,0,0-5.45-.74,23.92,23.92,0,0,0-5.72.9,46.62,46.62,0,0,0-10.7,4.78,80.45,80.45,0,0,1-10.39,5.61c-3.61,1.58-7.39,3.08-11.6,3.17a9.33,9.33,0,0,1-6.2-1.95A5.29,5.29,0,0,1,291,376a5.67,5.67,0,0,1,.58-3.55,8.08,8.08,0,0,1,5.31-3.89,14.59,14.59,0,0,1,6.24,0,52.75,52.75,0,0,1,11.31,3.93,105.28,105.28,0,0,1,10.37,5.63A35.21,35.21,0,0,0,335.63,382a21.4,21.4,0,0,0,5.76.29,8.38,8.38,0,0,0,5.27-2.13,6.21,6.21,0,0,1-2.34,1.8,11.37,11.37,0,0,1-2.85.89,21.39,21.39,0,0,1-6,.14,34.08,34.08,0,0,1-11.42-3.48c-3.53-1.87-6.84-3.82-10.35-5.53a52.28,52.28,0,0,0-5.33-2.31,28.43,28.43,0,0,0-5.53-1.48,11.79,11.79,0,0,0-5.43.27,6.17,6.17,0,0,0-3.83,3,3.51,3.51,0,0,0-.36,2.16,3.46,3.46,0,0,0,1.05,1.88A7.41,7.41,0,0,0,299,379.1c3.69.21,7.52-.89,11.17-2.16q2.75-1,5.4-2.25c1.77-.82,3.46-1.8,5.21-2.71a111.79,111.79,0,0,1,10.7-5c3.67-1.35,7.64-2.67,12-1.83a9.36,9.36,0,0,1,3.09,1.27,7.11,7.11,0,0,1,2.4,2.66,5.55,5.55,0,0,1,.44,3.7,5.38,5.38,0,0,1-2,3.08,8.69,8.69,0,0,1-6.25,1.47,46.28,46.28,0,0,1-5.9-1.13A66.07,66.07,0,0,1,324,372.49a53.91,53.91,0,0,1-5.3-2.71c-1.73-1-3.37-2-5.07-2.93a40.54,40.54,0,0,0-5.26-2.37,22.15,22.15,0,0,0-5.52-1.34,13.41,13.41,0,0,0-5.59.61,15.41,15.41,0,0,0-4.92,2.94.16.16,0,0,1-.23,0A.17.17,0,0,1,292.12,366.46Z" transform="translate(-290.93 -361.9)"/></svg>