<svg id="Layer_1" data-name="Layer 1" xmlns="http://www.w3.org/2000/svg" viewBox="0 0 58.62 21.17"><defs><style>.cls-1{fill:#c5d1eb;}</style></defs><title>decoration_azzurro</title><path class="cls-1" d="M1.19,4.56A15.13,15.13,0,0,1,6.07,1.1a13.27,13.27,0,0,1,6-1,28.52,28.52,0,0,1,11.5,3.39c1.8.88,3.51,1.9,5.21,2.81S32.22,8.09,34,9a62.49,62.49,0,0,0,10.78,4.35c.93.27,1.88.48,2.83.67a14.23,14.23,0,0,0,2.83.35,6.31,6.31,0,0,0,4.71-1.88,3.59,3.59,0,0,0,.56-4A6.14,6.14,0,0,0,52,5.52a14.59,14.59,0,0,0-5.45-.74,24,24,0,0,0-5.72.9,46.67,46.67,0,0,0-10.7,4.78,80,80,0,0,1-10.39,5.61c-3.61,1.58-7.39,3.08-11.6,3.17A9.38,9.38,0,0,1,2,17.29,5.26,5.26,0,0,1,.07,14.1a5.68,5.68,0,0,1,.58-3.55A8.08,8.08,0,0,1,6,6.66a14.59,14.59,0,0,1,6.24,0,52.64,52.64,0,0,1,11.31,3.93,104.86,104.86,0,0,1,10.37,5.63A35.14,35.14,0,0,0,44.7,20.1a21.4,21.4,0,0,0,5.76.29,8.36,8.36,0,0,0,5.27-2.13,6.17,6.17,0,0,1-2.34,1.8,11.5,11.5,0,0,1-2.85.89,21.16,21.16,0,0,1-6,.14,34.17,34.17,0,0,1-11.42-3.48c-3.53-1.87-6.84-3.82-10.35-5.53a51.33,51.33,0,0,0-5.33-2.31,28.57,28.57,0,0,0-5.53-1.48,11.87,11.87,0,0,0-5.43.27,6.17,6.17,0,0,0-3.83,3,3.51,3.51,0,0,0-.36,2.16,3.47,3.47,0,0,0,1,1.88,7.44,7.44,0,0,0,4.73,1.6c3.69.21,7.52-.89,11.17-2.16q2.75-1,5.4-2.25c1.77-.82,3.46-1.8,5.21-2.71a114.27,114.27,0,0,1,10.7-5c3.67-1.35,7.64-2.67,12-1.83a9.18,9.18,0,0,1,3.09,1.27A7.14,7.14,0,0,1,58,7.18a5.57,5.57,0,0,1,.44,3.7,5.34,5.34,0,0,1-2,3.08,8.68,8.68,0,0,1-6.25,1.47,47.23,47.23,0,0,1-5.9-1.13,66.28,66.28,0,0,1-11.26-3.71,55.06,55.06,0,0,1-5.3-2.71C26,6.88,24.4,5.88,22.7,5a40.07,40.07,0,0,0-5.26-2.37,22.26,22.26,0,0,0-5.52-1.34,13.41,13.41,0,0,0-5.59.61A15.3,15.3,0,0,0,1.41,4.79a.16.16,0,0,1-.23,0h0A.17.17,0,0,1,1.19,4.56Z" transform="translate(0 -0.07)"/></svg>