<svg id="Layer_1" data-name="Layer 1" xmlns="http://www.w3.org/2000/svg" viewBox="0 0 78.61 18.17"><defs><style>.cls-1{fill:#0a2835;}</style></defs><title>decoration_3</title><path class="cls-1" d="M283.81,367.47a.69.69,0,0,0,.7.36,1,1,0,0,0,.6-.44,1,1,0,0,0-.25-1.27,1.4,1.4,0,0,0-1.26-.4,1.12,1.12,0,0,0-.31.1,2.06,2.06,0,0,0-.33.17,2.36,2.36,0,0,0-.55.49,2.4,2.4,0,0,0-.53,1.32,2.08,2.08,0,0,0,.06.7,2.24,2.24,0,0,0,.11.34l.18.37a5,5,0,0,0,2.32,2.25,10,10,0,0,0,3.42,1,19.33,19.33,0,0,0,3.73,0,23.73,23.73,0,0,0,3.73-.59l3.73-.94c.62-.18,1.25-.29,1.89-.41l1.9-.36,1.93-.24,1-.11c.32,0,.65,0,1-.05a21.22,21.22,0,0,1,7.81.9c.63.2,1.24.5,1.87.74l.88.51a7.82,7.82,0,0,1,.86.55,11.31,11.31,0,0,1,2.85,3,6.77,6.77,0,0,1,1.19,4,4,4,0,0,1-.67,2.09,2.38,2.38,0,0,1-1.95,1,2.82,2.82,0,0,1-2-1,3.54,3.54,0,0,1-.83-2.1,4,4,0,0,1,0-1.09,4.64,4.64,0,0,1,.25-1,10.12,10.12,0,0,1,.88-1.92,11.32,11.32,0,0,1,2.84-3,9.8,9.8,0,0,1,.87-.55,6.41,6.41,0,0,1,.88-.5l.94-.41a5,5,0,0,1,.94-.35,21,21,0,0,1,7.83-.92,18.09,18.09,0,0,1,1.95.16c.64.09,1.29.13,1.93.24l1.91.35,1,.17.94.24,3.72.95a23.71,23.71,0,0,0,3.72.56,13.83,13.83,0,0,0,7.08-1,4.89,4.89,0,0,0,2.27-2.2l.18-.36a2,2,0,0,0,.11-.32,1.91,1.91,0,0,0,.06-.67,2.33,2.33,0,0,0-.49-1.28,2.2,2.2,0,0,0-.53-.48,3.3,3.3,0,0,0-.32-.18,1.42,1.42,0,0,0-.29-.1,1.39,1.39,0,0,0-1.23.37,1,1,0,0,0-.27,1.25.93.93,0,0,0,.59.45.72.72,0,0,0,.74-.36.86.86,0,0,1-.73.69,1.34,1.34,0,0,1-1.06-.41,1.58,1.58,0,0,1-.46-1.11,2.14,2.14,0,0,1,.39-1.15,2.47,2.47,0,0,1,2.16-1.07,2.77,2.77,0,0,1,.64.11,3.83,3.83,0,0,1,.56.22,3.7,3.7,0,0,1,2,2.86,3.82,3.82,0,0,1-.43,2.34l-.25.5-.32.46-.33.45-.41.4-.41.37-.46.31-.46.3-.49.23a11.35,11.35,0,0,1-4,.86,20,20,0,0,1-4-.27,37.43,37.43,0,0,1-3.82-.77c-1.27-.35-2.49-.63-3.72-.93l-.93-.22-.93-.15-1.87-.31c-.62-.1-1.25-.12-1.88-.18a16.88,16.88,0,0,0-1.88-.07A20,20,0,0,0,325,372a4.83,4.83,0,0,0-.84.36l-.81.39c-.28.12-.51.32-.77.46s-.51.31-.74.5a10.66,10.66,0,0,0-2.37,2.56,8.93,8.93,0,0,0-1.11,3.19,2.51,2.51,0,0,0,.08,1.56,1.41,1.41,0,0,0,1.22.85,1.32,1.32,0,0,0,1.19-.83,2.88,2.88,0,0,0,.09-1.6,9.44,9.44,0,0,0-1.21-3.2,11.26,11.26,0,0,0-5.58-4.29,19.79,19.79,0,0,0-7.31-1.18c-.32,0-.63,0-1,0l-.94.07c-.63.05-1.26.08-1.89.15l-1.87.31a16.68,16.68,0,0,0-1.87.36c-1.24.31-2.46.58-3.71.94s-2.53.58-3.82.78a20.4,20.4,0,0,1-3.92.28,11.08,11.08,0,0,1-4-.82l-.48-.22c-.16-.09-.31-.19-.46-.29l-.46-.3c-.14-.11-.27-.24-.41-.37l-.4-.38-.33-.44-.32-.45-.24-.5a3.7,3.7,0,0,1-.44-2.28,3.62,3.62,0,0,1,2-2.81,3.21,3.21,0,0,1,.54-.22,2.32,2.32,0,0,1,.63-.11,2.43,2.43,0,0,1,2.13,1,2.17,2.17,0,0,1,.4,1.13,1.57,1.57,0,0,1-.45,1.11,1.31,1.31,0,0,1-1.05.42.88.88,0,0,1-.77-.68s0,0,0-.05Z" transform="translate(-280.31 -364.38)"/></svg>