<svg id="Layer_1" data-name="Layer 1" xmlns="http://www.w3.org/2000/svg" viewBox="0 0 53.83 29.49"><defs><style>.cls-1{fill:#fff;}</style></defs><title>decoration_2</title><path class="cls-1" d="M278,373.83a3.71,3.71,0,0,0,3.75-1,2.83,2.83,0,0,0,.65-1.63,3.12,3.12,0,0,0-.4-1.66,6.76,6.76,0,0,0-.51-.72c-.23-.19-.44-.41-.68-.6s-.54-.34-.8-.52l-.89-.4a12.79,12.79,0,0,0-3.9-.85,9.49,9.49,0,0,0-3.88.57,8.45,8.45,0,0,0-3.24,2.3,7.09,7.09,0,0,0-1,7.78,7.83,7.83,0,0,0,2.84,3,12.34,12.34,0,0,0,3.95,1.53,17.31,17.31,0,0,0,8.36-.52c5.47-1.58,10.7-4.25,16.21-6.49a58.13,58.13,0,0,1,8.57-2.83,20,20,0,0,1,4.58-.51,11,11,0,0,1,4.57,1,6.37,6.37,0,0,1,1.94,1.4,4.19,4.19,0,0,1,1.14,2.17,2.09,2.09,0,0,1-1.09,2.27,3.39,3.39,0,0,1-2.44.26,7.58,7.58,0,0,1-3.8-2.77,22.26,22.26,0,0,1-2.43-3.9,25.5,25.5,0,0,1-1.72-4.21l-.62-2.14-.28-1-.36-1a12.35,12.35,0,0,0-4.91-6.37,9.36,9.36,0,0,0-7.89-.83,6.45,6.45,0,0,0-3.3,2.33,2.76,2.76,0,0,0-.45,1.89,3.69,3.69,0,0,0,.92,1.85h0a.14.14,0,0,1,0,.18.14.14,0,0,1-.17,0,3.79,3.79,0,0,1-1.27-1.92,3.42,3.42,0,0,1,.31-2.37,5.72,5.72,0,0,1,1.51-1.83,7.62,7.62,0,0,1,2-1.22,10.68,10.68,0,0,1,9.21.35,12.57,12.57,0,0,1,3.67,3.05,16.82,16.82,0,0,1,2.38,4.06l.44,1.09.36,1.1c.25.76.42,1.41.62,2.12.41,1.38.79,2.77,1.27,4.12a18.1,18.1,0,0,0,1.79,3.86,10.22,10.22,0,0,0,1.28,1.63,4.28,4.28,0,0,0,1.65,1.13,2.18,2.18,0,0,0,1.85-.12,1.25,1.25,0,0,0,.61-1.47,4.15,4.15,0,0,0-2.69-2.69c-2.6-1-5.53-.52-8.23.31a62.44,62.44,0,0,0-8,3.37c-5.29,2.47-10.67,5.28-16.75,6.35a19,19,0,0,1-9.18-.45,15.2,15.2,0,0,1-4.13-2A8.89,8.89,0,0,1,267,368.53a9.56,9.56,0,0,1,3.58-3.21,9.9,9.9,0,0,1,4.75-1,12.24,12.24,0,0,1,4.68,1.1,6.75,6.75,0,0,1,3.66,3.44,4.71,4.71,0,0,1,.26,2.65,4,4,0,0,1-1.37,2.22,3.59,3.59,0,0,1-2.33.8,4.14,4.14,0,0,1-1.17-.18A10.8,10.8,0,0,1,278,373.83Z" transform="translate(-265.46 -354.26)"/></svg>